<?xml version="1.0" standalone="no"?>
<!DOCTYPE svg PUBLIC "-//W3C//DTD SVG 20010904//EN"
 "http://www.w3.org/TR/2001/REC-SVG-20010904/DTD/svg10.dtd">
<svg version="1.0" xmlns="http://www.w3.org/2000/svg"
 width="801.000000pt" height="801.000000pt" viewBox="0 0 801.000000 801.000000"
 preserveAspectRatio="xMidYMid meet">
<metadata>
Created by potrace 1.14, written by Peter Selinger 2001-2017
</metadata>
<g transform="translate(0.000000,801.000000) scale(0.100000,-0.100000)"
fill="#000000" stroke="none">
<path d="M2080 7294 c-169 -28 -299 -105 -411 -244 -120 -150 -170 -354 -132
-546 53 -266 290 -491 558 -529 377 -55 724 216 763 595 20 205 -45 387 -194
536 -67 68 -96 89 -175 127 -52 25 -117 50 -144 56 -74 17 -180 19 -265 5z"/>
<path d="M471 6749 c-179 -46 -313 -166 -381 -344 -29 -76 -36 -223 -15 -305
47 -180 189 -333 360 -387 282 -90 582 65 680 352 39 113 24 289 -35 405 -113
222 -369 340 -609 279z"/>
<path d="M4167 6574 c-1 -1 -29 -5 -62 -8 -81 -8 -218 -27 -225 -31 -3 -2 -24
-6 -46 -9 -123 -19 -363 -89 -504 -148 -25 -11 -58 -24 -74 -31 -118 -48 -349
-179 -486 -275 -185 -130 -391 -318 -525 -477 -27 -33 -52 -62 -55 -65 -9 -8
-132 -180 -161 -225 -158 -245 -290 -537 -354 -785 -41 -157 -75 -333 -92
-470 -10 -86 -10 -526 0 -615 50 -423 181 -809 394 -1160 56 -90 183 -267 238
-330 159 -181 282 -296 460 -431 315 -238 676 -406 1085 -503 129 -31 159 -37
245 -47 28 -3 56 -7 63 -10 27 -8 222 -18 367 -18 134 0 252 6 340 18 17 3 50
7 75 10 25 3 56 8 70 11 14 2 61 12 105 21 175 36 426 117 578 186 51 23 67
36 68 52 1 29 1 114 -1 737 0 301 -4 549 -7 553 -3 3 -11 2 -17 -3 -12 -8
-182 -78 -226 -92 -14 -4 -50 -17 -80 -28 -30 -12 -107 -37 -170 -55 -97 -29
-129 -37 -190 -51 -3 -1 -18 -4 -35 -8 -177 -42 -478 -63 -640 -45 -320 36
-603 180 -843 427 -240 247 -391 559 -427 881 -8 71 -8 225 -1 270 26 149 41
214 67 293 124 370 366 649 714 822 116 57 240 105 307 119 198 40 237 45 403
42 94 -2 184 -6 200 -10 17 -3 64 -13 105 -22 526 -113 929 -534 1047 -1094
16 -79 18 -182 18 -1557 0 -810 2 -1474 5 -1474 3 -1 299 -3 658 -3 l652 -2 0
2648 0 2647 -658 1 -658 0 3 -55 2 -56 -32 19 c-191 116 -263 153 -407 215
-147 62 -374 136 -469 154 -14 2 -46 9 -71 14 -25 6 -58 12 -75 15 -16 2 -41
6 -54 9 -14 2 -47 7 -75 11 -28 3 -67 8 -86 10 -40 5 -458 12 -463 8z"/>
<path d="M1065 5290 c-90 -20 -189 -101 -232 -188 -24 -49 -27 -69 -27 -147
-1 -76 3 -98 25 -145 84 -177 284 -251 465 -170 57 24 133 102 164 165 21 42
25 65 25 145 0 83 -3 102 -27 150 -45 91 -121 156 -223 188 -35 11 -125 12
-170 2z"/>
</g>
</svg>
